<?xml version="1.0" encoding="iso-8859-1"?>
<!-- Generator: Adobe Illustrator 19.0.0, SVG Export Plug-In . SVG Version: 6.00 Build 0)  -->
<svg version="1.1" id="Layer_1" xmlns="http://www.w3.org/2000/svg" xmlns:xlink="http://www.w3.org/1999/xlink" x="0px" y="0px"
	 viewBox="0 0 509.287 509.287" style="enable-background:new 0 0 509.287 509.287;" xml:space="preserve">
<circle style="fill:#3EB9E3;" cx="254.644" cy="254.644" r="254.644"/>
<g>
	<path style="fill:#FFFFFF;" d="M387.899,81.377c0-1.017,0.339-1.695,0-2.713c-0.678-5.086-5.425-9.155-10.511-8.477
		c-1.695,0.339-3.391,1.017-4.747,2.034c-8.138-11.868-22.718-18.988-37.976-17.293c-12.546,1.356-23.057,8.138-29.499,17.632
		c-2.034-0.339-4.069-0.339-5.764,0c-14.58,1.695-25.43,14.58-24.074,29.499h129.526C403.497,92.228,396.715,84.429,387.899,81.377z
		"/>
	<path style="fill:#FFFFFF;" d="M467.581,232.943c0-1.017,0.339-1.695,0-2.713c-0.678-5.086-5.425-9.155-10.511-8.477
		c-1.695,0.339-3.391,1.017-4.747,2.034c-8.138-11.868-22.718-18.988-37.976-17.293c-12.546,1.356-23.057,8.138-29.499,17.632
		c-2.034-0.339-4.069-0.339-5.764,0c-14.58,1.695-25.43,14.58-24.074,29.499h129.526
		C483.179,243.793,476.397,236.334,467.581,232.943z"/>
</g>
<path style="fill:#FBD303;" d="M207.513,379.083c-3.052,10.172,0.678,21.362,3.391,31.534c3.052,11.189,4.747,23.057,6.442,34.585
	c0.678-4.069,1.356-8.138,2.374-12.207c2.034,4.747,4.069,9.494,6.103,14.58c0.678-9.494,3.052-18.988,6.781-27.465
	c7.799,20.683,14.241,41.706,18.988,63.407c-1.356-6.103,0-12.546,1.695-18.649c3.052-12.207,6.442-24.074,9.494-36.281
	c2.034,5.086,3.73,10.172,5.086,15.597c1.017-6.442,3.391-12.546,6.781-17.971c3.052,13.902,6.103,28.143,9.155,42.045
	c1.695-19.327,5.764-38.315,11.868-56.625c1.017,4.747,2.713,9.494,5.086,14.241c1.695-16.276,2.374-32.89,1.695-49.166
	c-31.195,0.339-62.389,0.678-93.584,1.017"/>
<path style="fill:#F0582F;" d="M211.921,381.796c4.408,11.528,6.442,24.074,6.103,36.62c0.678-7.46,1.695-14.58,2.374-22.04
	c1.356,6.442,2.713,12.546,4.069,18.988c-0.339-2.713,0-5.764,1.017-8.477c2.374,2.034,4.069,4.747,5.425,7.46
	c-1.017-1.017,0.339-2.713,1.695-2.713c1.356,0,4.747,4.408,5.764,4.747c-0.678-4.747,0-9.833,1.695-14.58
	c6.103,13.563,9.494,28.482,9.833,43.74c1.017-14.919,6.103-29.16,10.85-43.401c2.713,7.121,5.086,14.241,6.781,21.701
	c0.339-4.747,2.374-9.155,5.425-12.546c1.695,3.391,3.052,6.442,4.408,9.833c0.339-4.408,1.356-8.816,3.391-12.885
	c2.034,5.086,3.391,10.85,4.408,16.276c1.356-13.224,2.713-26.448,5.425-39.672c-23.735,0-47.809,0-71.544,0L211.921,381.796z"/>
<path style="fill:#F1F3F7;" d="M326.866,124.101H182.421c-12.885,43.401-12.885,91.889-7.799,135.629h160.042
	C339.751,215.989,339.751,167.502,326.866,124.101z"/>
<g>
	<path style="fill:#DEDEDF;" d="M202.426,268.885l-81.038,32.89c-19.666,8.138-30.517,30.177-24.752,51.2l28.143,107.486
		l88.159-95.619L202.426,268.885z"/>
	<path style="fill:#DEDEDF;" d="M306.861,268.885l81.038,32.89c19.666,8.138,30.517,30.177,24.752,51.2l-28.143,107.486
		l-88.159-95.619L306.861,268.885z"/>
</g>
<g>
	<path style="fill:#FCFCFD;" d="M121.388,316.355l81.038-32.89l9.155,82.734l1.356-1.695l-10.511-95.619l-81.038,32.89
		c-18.649,7.46-29.16,27.465-25.77,47.131C98.331,334.665,107.486,322.119,121.388,316.355z"/>
	<path style="fill:#FCFCFD;" d="M306.861,283.465l81.038,32.89c13.902,5.764,23.396,18.31,25.77,32.551
		c3.391-20.005-7.121-39.672-25.77-47.131l-81.038-32.89l-10.511,95.619l1.356,1.695L306.861,283.465z"/>
	<circle style="fill:#FCFCFD;" cx="254.644" cy="191.915" r="50.861"/>
</g>
<circle style="fill:#4485C5;" cx="254.644" cy="191.915" r="37.976"/>
<path style="fill:#F0582F;" d="M254.644,25.77c-38.315,23.735-60.694,58.999-72.223,98.331h144.445
	C315.338,84.768,292.959,49.844,254.644,25.77z"/>
<path style="fill:#03A9F4;" d="M174.623,259.73c8.816,74.596,32.212,135.629,32.212,135.629h95.958
	c0,0,23.396-61.033,32.212-135.629H174.623z"/>
<g>
	<path style="fill:#FFFFFF;" d="M125.457,128.17c0.339-1.356,0.339-2.374,0.339-3.73c-0.678-7.46-7.46-12.546-14.58-11.868
		c-2.374,0.339-4.747,1.356-6.781,2.713c-9.833-14.241-26.448-23.735-44.419-24.752c-16.615,19.666-30.517,42.045-40.35,66.458
		h129.865C147.158,143.428,138.003,132.577,125.457,128.17z"/>
	<polygon style="fill:#FFFFFF;" points="77.987,227.518 75.952,244.472 77.987,261.425 80.36,244.472 	"/>
	<polygon style="fill:#FFFFFF;" points="95.279,244.472 78.665,242.098 62.389,244.472 79.004,246.845 	"/>
	<polygon style="fill:#FFFFFF;" points="428.588,142.072 418.755,155.974 412.991,171.91 422.824,158.008 	"/>
	<polygon style="fill:#FFFFFF;" points="435.709,164.789 422.146,155.295 406.887,149.531 420.45,159.364 	"/>
</g>
<g>
</g>
<g>
</g>
<g>
</g>
<g>
</g>
<g>
</g>
<g>
</g>
<g>
</g>
<g>
</g>
<g>
</g>
<g>
</g>
<g>
</g>
<g>
</g>
<g>
</g>
<g>
</g>
<g>
</g>
</svg>
